inDegrees=yes
name=ik_S57_A09_T01
DataType=double
version=3
OpenSimVersion=4.3-2021-08-27-4bc7ad9
endheader
time	pelvis_tilt	pelvis_list	pelvis_rotation	pelvis_tx	pelvis_ty	pelvis_tz	hip_flexion_r	hip_adduction_r	hip_rotation_r	knee_angle_r	knee_angle_r_beta	ankle_angle_r	subtalar_angle_r	mtp_angle_r	hip_flexion_l	hip_adduction_l	hip_rotation_l	knee_angle_l	knee_angle_l_beta	ankle_angle_l	subtalar_angle_l	mtp_angle_l	lumbar_extension	lumbar_bending	lumbar_rotation	arm_flex_r	arm_add_r	arm_rot_r	elbow_flex_r	pro_sup_r	wrist_flex_r	wrist_dev_r	arm_flex_l	arm_add_l	arm_rot_l	elbow_flex_l	pro_sup_l	wrist_flex_l	wrist_dev_l
0	0	0	0	0	0.9399999999999999	0	0	0	0	0	0	0	0	0	0	0	0	0	0	0	0	0	0	0	0	0	0	0	0	89.99999999963507	0	0	0	0	0	0	89.99999999869995	0	0
0.02	-6.116939500349265	0.6262442167163008	25.2631224569558	0	0.9399999999999999	0	3.782028213086685	-1.773624949582971	-1.274604951749256	5.856628185740483	0.1022174449062734	0	0	0	3.782028213086685	-1.773624949582971	-1.274604951749256	5.856628185740483	0.1022174449062734	0	0	0	-2.269108596770971	-4.270565212267578	4.695918921391691	5.435860012671247	-2.661386183019054	-2.509679686464942	56.25378303131797	127.1986882673583	0	0	3.819411001386928	-5.138291282576676	3.701254020240738	55.04901667840065	142.0957299713684	0	0
0.04	-5.014956712931671	-0.157384574709957	26.28401333892588	0	0.9399999999999999	0	38.0891011955303	-13.84766339651642	-10.6971702483056	54.66853721107881	0.9541459715823635	0	0	0	38.0891011955303	-13.84766339651642	-10.6971702483056	54.66853721107881	0.9541459715823635	0	0	0	-2.954339327551295	-3.048806045932853	3.789328589629256	5.408958604204077	-2.6700633141083	-2.570156868449664	56.25145584866423	127.1648008538336	0	0	3.795071596764803	-5.136226712790607	3.755276985290692	55.11255750050819	142.1270560157076	0	0
0.06	-4.997044862687636	-0.1663493442068345	26.28869859343528	0	0.9399999999999999	0	38.09143535241359	-13.8442673942582	-10.6967202897727	54.66861690071677	0.9541473624289256	0	0	0	38.09143535241359	-13.8442673942582	-10.6967202897727	54.66861690071677	0.9541473624289256	0	0	0	-2.942635919040728	-3.06330167314106	3.783591191581711	5.380154026717155	-2.625269982335566	-2.568412477187319	56.21915401741756	127.145682925261	0	7.270129189601142e-36	3.794108324416161	-5.140895984046247	3.73554928536411	55.08618036923396	142.1510840020665	0	7.270129189601142e-36
0.08	-4.981465720464263	-0.1704605922801188	26.2935755857582	0	0.9399999999999999	0	38.10009750318381	-13.82943532235991	-10.69490193284735	54.6688997064218	0.9541522983196219	0	0	0	38.10009750318381	-13.82943532235991	-10.69490193284735	54.6688997064218	0.9541522983196219	0	0	0	-2.931962555048683	-3.068742015417104	3.768596215840459	5.35327796726081	-2.65499560842481	-2.500659195175333	56.2200024763304	127.108865709164	0	0	3.7720590906204	-5.150062084999081	3.688238487100499	55.06341561250143	142.1583994408691	0	0
0.1	-4.966469920235763	-0.158782015271149	26.31624566529517	0	0.9399999999999999	0	38.10635977257191	-13.81958243763228	-10.6936433996112	54.6691073628431	0.9541559226078864	0	0	0	38.10635977257191	-13.81958243763228	-10.6936433996112	54.6691073628431	0.9541559226078864	0	0	0	-2.914383208136861	-3.061651266120817	3.766941583636915	5.315395265646835	-2.68866191843457	-2.436233141935912	56.20280543343996	127.1061371027844	0	0	3.743316041191841	-5.131678032129486	3.670592541756823	55.06409687606208	142.1864678994458	0	0
0.12	-4.965461964737197	-0.1613253385411844	26.32357083879993	0	0.9399999999999999	0	38.11619022419891	-13.80555847458319	-10.6917580747988	54.66943706956146	0.9541616770756878	0	0	0	38.11619022419891	-13.80555847458319	-10.6917580747988	54.66943706956146	0.9541616770756878	0	0	0	-2.916273429228275	-3.05907049345269	3.764614664446488	5.315022274551236	-2.690602992981923	-2.42036448314604	56.21520143726669	127.0787145069713	0	0	3.745804333885669	-5.12885972967884	3.693291672765488	55.0829772474637	142.1610527812976	0	0
0.14	-4.966073462768454	-0.1662831105695148	26.30141042896416	0	0.9399999999999999	0	38.12187910248391	-13.79865604599744	-10.69074505887536	54.66963252016327	0.9541650883322143	0	0	0	38.12187910248391	-13.79865604599744	-10.69074505887536	54.66963252016327	0.9541650883322143	0	0	0	-2.920045462366667	-3.060125395066268	3.76420220549138	5.294171910560318	-2.713825277959499	-2.476205078371147	56.22354687158204	127.0995734622123	0	0	3.753482335766084	-5.138979076879568	3.635520459497369	55.07771078559411	142.1780238735488	0	0
0.16	-4.962595909709309	-0.1824223440228808	26.30615952227312	0	0.9399999999999999	0	38.12986921124885	-13.784167114198	-10.68901898097486	54.66989140280926	0.9541696066867631	0	0	0	38.12986921124885	-13.784167114198	-10.68901898097486	54.66989140280926	0.9541696066867631	0	0	0	-2.925388657235807	-3.072287092760721	3.767659397079891	5.286094522780237	-2.68245806956868	-2.502073250323902	56.23833418994094	127.0741009822379	0	0	3.763989832070089	-5.150293537139864	3.640130217421584	55.08436671183503	142.1603117129413	0	0
0.18	-4.959065525094973	-0.1907317485565926	26.32147462652484	0	0.9399999999999999	0	38.14051077650886	-13.76679293028356	-10.68683952934159	54.67024104610399	0.9541757091134636	0	0	0	38.14051077650886	-13.76679293028356	-10.68683952934159	54.67024104610399	0.9541757091134636	0	0	0	-2.927685444290054	-3.075875791306674	3.769670207987651	5.290346423366411	-2.668994623478741	-2.510236096166417	56.25466785301904	127.0476656564598	0	0	3.766242969770043	-5.156791868689057	3.665579672968561	55.10022763794264	142.1135442772697	0	0
